<svg id="svg" version="1.1" width="400" height="400" viewBox="0 0 400 400" xmlns="http://www.w3.org/2000/svg" xmlns:xlink="http://www.w3.org/1999/xlink" ><g id="svgg"><path id="path0" d="M222.000 159.371 C 221.450 159.668,219.920 160.133,218.600 160.404 C 217.247 160.682,215.707 161.313,215.069 161.849 C 214.447 162.372,213.714 162.800,213.439 162.800 C 213.164 162.800,212.517 163.250,212.000 163.800 C 211.483 164.350,210.836 164.800,210.561 164.800 C 210.286 164.800,209.527 165.250,208.873 165.800 C 206.857 167.496,206.230 167.137,204.174 163.110 C 202.865 160.547,203.210 160.679,196.600 160.197 C 191.231 159.805,191.800 155.791,191.800 194.086 C 191.800 224.956,191.845 227.104,192.509 228.118 L 193.218 229.200 199.200 229.200 L 205.182 229.200 205.891 228.118 C 206.545 227.121,206.616 225.100,206.800 202.137 L 207.000 177.237 208.600 175.708 C 210.840 173.568,213.679 171.731,215.260 171.401 C 215.997 171.247,217.464 170.845,218.520 170.508 C 223.388 168.954,229.037 171.630,231.641 176.723 L 232.600 178.600 232.800 203.059 C 233.041 232.492,232.089 229.203,240.362 229.194 C 248.729 229.185,247.978 231.652,247.990 204.119 L 248.000 182.838 249.132 179.471 C 250.656 174.936,252.922 172.610,257.400 170.986 C 262.435 169.159,267.219 170.147,270.814 173.755 C 274.220 177.173,274.163 176.693,274.397 204.133 C 274.637 232.423,273.722 229.200,281.515 229.200 C 289.215 229.200,289.047 229.340,289.404 222.636 C 289.910 213.134,289.374 179.645,288.686 177.773 C 288.356 176.878,287.871 175.108,287.608 173.838 C 287.344 172.569,286.695 170.891,286.164 170.110 C 285.634 169.328,285.200 168.488,285.199 168.244 C 285.198 167.720,280.504 162.800,280.004 162.800 C 279.816 162.800,279.153 162.375,278.531 161.856 C 277.870 161.304,276.569 160.790,275.400 160.618 C 274.300 160.456,272.775 160.064,272.012 159.745 C 268.269 158.186,258.243 159.061,254.200 161.299 C 253.760 161.543,252.878 162.025,252.240 162.371 C 251.602 162.717,249.291 164.800,247.105 167.000 L 243.129 171.000 241.729 169.400 C 240.958 168.520,240.046 167.261,239.702 166.601 C 238.480 164.258,234.471 160.948,231.918 160.175 C 230.622 159.783,229.470 159.313,229.357 159.131 C 229.021 158.586,223.097 158.780,222.000 159.371 M328.232 159.431 C 327.370 159.747,325.480 160.222,324.032 160.487 C 322.584 160.752,320.790 161.381,320.044 161.884 C 319.298 162.388,318.488 162.802,318.244 162.805 C 317.592 162.813,313.536 164.925,312.445 165.825 C 311.929 166.251,310.904 167.154,310.169 167.832 L 308.832 169.064 309.963 171.432 C 312.059 175.817,316.231 177.354,319.493 174.942 C 328.105 168.576,340.431 168.588,344.736 174.968 C 347.261 178.709,348.167 187.605,346.220 189.551 C 345.555 190.217,341.640 190.716,336.600 190.777 C 335.060 190.796,333.025 191.082,332.078 191.412 C 331.130 191.742,328.970 192.200,327.278 192.430 C 325.585 192.660,323.750 193.090,323.200 193.385 C 322.650 193.679,321.431 194.126,320.492 194.378 C 319.552 194.629,318.132 195.277,317.336 195.818 C 316.540 196.358,315.714 196.800,315.502 196.800 C 315.289 196.800,314.581 197.250,313.927 197.800 C 313.273 198.350,312.523 198.800,312.259 198.800 C 311.845 198.800,310.420 200.101,307.963 202.721 C 301.448 209.669,304.914 223.211,314.438 228.019 C 318.998 230.321,330.687 230.492,335.000 228.321 C 335.880 227.878,337.500 227.062,338.600 226.509 C 340.595 225.504,341.955 224.691,345.022 222.669 C 347.549 221.002,348.791 221.559,350.226 225.005 C 351.790 228.760,356.351 230.481,360.150 228.750 C 361.579 228.099,361.548 228.600,361.644 204.400 C 361.748 178.146,361.434 174.975,358.320 170.846 C 357.924 170.321,357.600 169.688,357.600 169.439 C 357.600 167.794,349.440 161.025,346.899 160.563 C 346.075 160.413,344.538 159.955,343.485 159.545 C 341.021 158.586,330.747 158.509,328.232 159.431 M33.680 160.425 C 32.954 160.580,32.258 160.808,32.135 160.932 C 31.801 161.266,32.804 165.191,33.634 166.800 C 34.721 168.908,36.800 173.513,36.800 173.814 C 36.800 173.959,37.592 175.726,38.560 177.739 C 39.528 179.753,40.448 181.850,40.605 182.400 C 40.763 182.950,41.231 183.961,41.646 184.647 C 42.061 185.333,42.400 186.141,42.400 186.441 C 42.400 186.742,42.832 187.891,43.359 188.994 C 44.876 192.166,46.220 195.160,47.583 198.400 C 48.278 200.050,49.285 202.303,49.823 203.406 C 50.360 204.509,50.800 205.755,50.800 206.174 C 50.800 206.594,51.097 207.265,51.461 207.667 C 52.068 208.338,53.424 211.266,54.488 214.200 C 54.727 214.860,55.255 215.878,55.661 216.462 C 56.068 217.046,56.400 217.748,56.400 218.023 C 56.400 218.298,56.860 219.496,57.423 220.685 C 58.696 223.375,58.787 226.108,57.677 228.255 C 57.237 229.105,56.591 230.430,56.241 231.200 C 55.891 231.970,55.452 232.870,55.265 233.200 C 55.078 233.530,54.554 234.610,54.099 235.600 C 53.121 237.731,51.092 242.186,50.456 243.600 C 50.208 244.150,49.830 244.870,49.616 245.200 C 48.848 246.382,47.128 251.261,47.388 251.521 C 47.851 251.985,55.145 252.071,57.879 251.645 C 61.044 251.153,62.406 249.870,63.449 246.400 C 63.813 245.190,64.446 243.573,64.855 242.806 C 65.265 242.039,65.600 241.175,65.600 240.885 C 65.600 240.595,65.952 239.693,66.382 238.879 C 67.566 236.640,69.488 232.327,69.803 231.200 C 69.957 230.650,70.307 229.840,70.580 229.400 C 70.854 228.960,71.389 227.657,71.769 226.505 C 72.150 225.352,72.623 224.310,72.820 224.188 C 73.017 224.066,73.380 223.209,73.626 222.283 C 73.873 221.357,74.305 220.330,74.587 220.000 C 74.868 219.670,75.328 218.680,75.608 217.800 C 75.888 216.920,76.451 215.573,76.859 214.806 C 77.266 214.039,77.600 213.263,77.600 213.081 C 77.600 212.899,78.020 211.817,78.533 210.675 C 79.046 209.534,79.884 207.610,80.394 206.400 C 80.905 205.190,81.835 203.086,82.461 201.725 C 83.088 200.364,83.600 199.124,83.600 198.969 C 83.600 198.814,83.943 197.948,84.362 197.044 C 86.330 192.802,87.142 190.921,87.406 190.000 C 87.563 189.450,88.013 188.370,88.405 187.600 C 89.724 185.011,91.249 181.623,91.598 180.507 C 92.107 178.879,94.374 173.516,94.762 173.024 C 94.946 172.791,95.323 171.880,95.600 171.000 C 95.877 170.120,96.275 169.185,96.483 168.922 C 96.692 168.658,97.307 167.218,97.851 165.722 C 99.513 161.148,99.602 160.775,99.078 160.586 C 97.953 160.179,90.779 160.127,88.291 160.507 L 85.583 160.920 84.320 163.290 C 83.122 165.538,82.569 166.892,80.763 172.000 C 80.335 173.210,79.732 174.740,79.423 175.400 C 78.848 176.629,78.079 178.637,76.802 182.242 C 76.405 183.365,75.888 184.625,75.655 185.042 C 74.816 186.541,73.115 191.043,72.579 193.188 C 72.278 194.391,71.764 195.921,71.437 196.588 C 70.158 199.195,68.400 203.219,68.400 203.540 C 68.400 203.726,68.056 204.275,67.635 204.760 L 66.869 205.643 65.513 204.286 C 64.553 203.327,64.014 202.293,63.670 200.756 C 63.402 199.560,62.737 197.701,62.192 196.623 C 61.646 195.546,61.200 194.245,61.200 193.732 C 61.200 193.219,61.035 192.800,60.833 192.800 C 60.631 192.800,60.160 191.945,59.785 190.900 C 59.411 189.855,58.766 188.235,58.352 187.300 C 57.939 186.365,57.261 184.835,56.846 183.900 C 56.431 182.965,55.875 181.570,55.610 180.800 C 55.346 180.030,54.898 178.950,54.616 178.400 C 54.334 177.850,53.873 176.684,53.591 175.810 C 53.309 174.935,52.746 173.675,52.341 173.010 C 51.935 172.344,51.597 171.530,51.589 171.200 C 51.581 170.870,51.041 169.525,50.387 168.210 C 49.734 166.896,49.200 165.599,49.200 165.328 C 49.200 165.057,48.750 164.172,48.200 163.362 C 47.650 162.551,47.200 161.664,47.200 161.389 C 47.200 160.425,37.065 159.703,33.680 160.425 M114.355 160.273 C 114.050 160.314,113.118 160.458,112.285 160.594 L 110.771 160.842 110.885 185.321 C 110.990 207.655,111.061 209.930,111.700 211.287 C 112.085 212.105,112.400 213.258,112.400 213.848 C 112.400 215.058,114.203 219.085,115.796 221.432 C 121.501 229.840,136.451 232.595,146.000 227.000 C 146.550 226.678,147.603 226.131,148.339 225.785 C 149.076 225.439,150.562 224.458,151.642 223.604 C 155.108 220.865,155.675 220.993,157.547 224.941 C 159.250 228.533,160.356 229.200,164.610 229.200 C 168.466 229.200,169.324 228.894,170.196 227.208 C 171.130 225.401,171.107 161.964,170.171 161.029 C 169.446 160.303,157.497 160.098,156.400 160.792 C 155.879 161.122,155.796 164.132,155.769 183.686 C 155.733 209.514,155.489 212.800,153.609 212.800 C 153.404 212.800,152.792 213.205,152.249 213.700 C 147.037 218.451,136.834 220.266,132.200 217.267 C 129.875 215.762,127.765 213.263,127.394 211.574 C 127.251 210.924,126.841 209.809,126.482 209.096 C 125.903 207.946,125.825 205.179,125.780 184.485 C 125.751 171.026,125.576 161.020,125.365 160.815 C 125.052 160.510,115.951 160.063,114.355 160.273 M346.646 200.214 C 347.214 201.081,347.281 202.056,347.107 206.901 L 346.903 212.573 344.551 214.677 C 343.258 215.834,341.997 216.785,341.749 216.790 C 341.501 216.796,341.082 217.061,340.817 217.380 C 340.552 217.698,339.675 218.164,338.868 218.414 C 338.061 218.664,336.770 219.164,336.000 219.524 C 329.829 222.413,320.050 218.739,319.367 213.276 C 318.603 207.161,321.845 203.043,328.669 201.459 C 330.027 201.143,331.377 200.735,331.669 200.551 C 334.151 198.987,345.672 198.728,346.646 200.214 " stroke="none" fill="#25aa32" fill-rule="evenodd"></path><path id="path1" d="M0.000 200.000 L 0.000 400.000 200.000 400.000 L 400.000 400.000 400.000 200.000 L 400.000 0.000 200.000 0.000 L 0.000 0.000 0.000 200.000 M342.800 157.333 C 348.482 158.253,354.130 160.899,355.906 163.470 C 356.287 164.023,356.870 164.779,357.200 165.149 C 359.809 168.075,362.219 172.954,363.011 176.909 C 363.373 178.719,363.840 181.042,364.048 182.071 C 364.267 183.155,364.378 193.461,364.313 206.594 L 364.200 229.246 363.200 230.014 C 362.335 230.678,361.507 230.783,357.076 230.791 L 351.952 230.800 349.776 228.742 C 348.579 227.610,347.597 226.485,347.594 226.242 C 347.573 224.738,346.886 224.735,344.153 226.229 C 337.340 229.953,336.310 230.427,334.510 230.669 C 333.460 230.811,332.158 231.213,331.618 231.563 C 330.125 232.531,319.550 232.483,317.639 231.500 C 316.890 231.115,315.801 230.800,315.218 230.800 C 314.105 230.800,309.200 227.857,309.200 227.189 C 309.200 226.975,308.951 226.800,308.647 226.800 C 308.344 226.800,307.579 226.127,306.947 225.304 C 305.856 223.880,305.366 223.087,304.161 220.790 C 300.864 214.506,303.990 201.351,309.600 197.903 C 310.370 197.430,311.990 196.314,313.200 195.425 C 315.684 193.598,319.718 191.842,322.400 191.420 C 323.390 191.264,325.140 190.796,326.289 190.378 C 327.439 189.961,330.409 189.442,332.889 189.227 C 344.005 188.259,345.394 187.669,345.071 184.057 C 344.632 179.155,342.739 175.558,339.617 173.694 C 337.381 172.358,329.781 172.069,327.966 173.250 C 327.434 173.596,326.280 174.109,325.400 174.390 C 324.520 174.671,323.530 175.119,323.200 175.385 C 322.870 175.651,321.970 176.113,321.200 176.412 C 320.430 176.711,319.338 177.290,318.773 177.699 C 316.420 179.402,311.043 178.049,309.636 175.400 C 309.403 174.960,308.834 174.133,308.373 173.561 C 306.862 171.688,306.816 167.905,308.289 166.523 C 311.699 163.321,313.553 161.938,315.000 161.514 C 315.880 161.256,316.960 160.826,317.400 160.557 C 317.840 160.288,319.131 159.797,320.269 159.465 C 321.406 159.133,322.717 158.658,323.182 158.410 C 323.647 158.161,326.016 157.712,328.447 157.411 C 330.879 157.111,332.988 156.744,333.134 156.596 C 333.496 156.228,338.192 156.587,342.800 157.333 M234.400 158.770 C 237.337 160.266,241.373 164.187,242.481 166.619 C 243.053 167.874,243.626 167.538,247.227 163.835 C 248.636 162.386,249.994 161.200,250.245 161.200 C 250.496 161.200,250.918 160.939,251.183 160.620 C 251.448 160.302,252.325 159.840,253.132 159.594 C 253.939 159.348,255.320 158.754,256.200 158.273 C 259.002 156.744,272.750 156.970,276.600 158.608 C 284.255 161.867,287.538 165.920,290.524 175.800 C 291.835 180.138,292.250 226.500,291.000 229.000 L 290.200 230.600 286.800 230.918 C 281.084 231.453,274.001 230.941,272.908 229.914 L 272.000 229.061 271.992 209.230 C 271.981 184.185,271.626 177.705,270.204 176.667 C 269.652 176.263,269.200 175.699,269.200 175.413 C 269.200 175.127,268.885 174.789,268.500 174.661 C 268.115 174.534,267.305 174.027,266.699 173.536 C 264.960 172.125,258.466 172.246,256.200 173.732 C 253.767 175.327,252.810 176.394,251.656 178.800 L 250.600 181.000 250.400 205.136 L 250.200 229.271 249.256 230.036 C 247.915 231.121,233.114 231.208,231.931 230.138 C 231.239 229.512,231.200 228.261,231.200 206.833 C 231.200 178.722,231.104 178.073,226.280 173.700 C 224.873 172.424,216.796 172.351,215.200 173.600 C 214.650 174.030,214.016 174.386,213.791 174.391 C 213.215 174.404,209.807 177.623,209.257 178.674 C 208.929 179.301,208.800 186.421,208.800 203.948 C 208.800 228.960,208.730 230.114,207.195 230.602 C 204.763 231.374,191.021 230.866,190.302 229.978 C 189.645 229.167,189.600 226.905,189.600 194.537 L 189.600 159.962 190.649 158.990 C 194.276 155.628,205.677 158.018,206.595 162.334 C 206.913 163.829,208.174 163.869,209.800 162.435 C 210.240 162.047,211.185 161.499,211.900 161.216 C 212.615 160.934,213.200 160.572,213.200 160.411 C 213.200 160.072,217.856 158.040,219.725 157.564 C 223.199 156.678,231.659 157.373,234.400 158.770 M45.723 158.229 C 47.456 158.512,50.279 161.122,50.665 162.798 C 50.791 163.349,51.128 164.174,51.412 164.631 C 51.696 165.088,52.196 166.348,52.524 167.431 C 52.852 168.514,53.849 170.974,54.740 172.897 C 55.632 174.821,56.537 176.981,56.752 177.697 C 57.270 179.420,59.183 183.991,59.809 185.000 C 60.082 185.440,60.430 186.334,60.582 186.987 C 60.847 188.124,61.963 190.777,63.615 194.200 C 64.040 195.080,64.568 196.532,64.789 197.426 C 65.010 198.320,65.608 199.443,66.117 199.922 L 67.042 200.791 67.570 199.296 C 67.861 198.473,68.330 197.530,68.612 197.200 C 68.894 196.870,69.337 195.806,69.595 194.836 C 69.854 193.866,70.298 192.696,70.583 192.236 C 70.867 191.776,71.316 190.500,71.580 189.400 C 71.844 188.300,72.297 187.130,72.586 186.800 C 72.875 186.470,73.238 185.570,73.394 184.800 C 73.550 184.030,74.001 182.837,74.396 182.150 C 74.791 181.462,75.406 179.896,75.762 178.670 C 76.119 177.444,76.588 176.331,76.805 176.197 C 77.022 176.063,77.200 175.639,77.200 175.255 C 77.200 174.871,77.637 173.667,78.171 172.579 C 78.705 171.490,79.349 169.790,79.603 168.800 C 79.857 167.810,80.292 166.640,80.569 166.200 C 80.847 165.760,81.206 164.861,81.369 164.203 C 82.545 159.434,85.181 158.039,93.317 157.882 C 104.167 157.671,104.253 158.282,95.828 175.800 C 95.299 176.900,94.741 178.250,94.587 178.800 C 94.434 179.350,93.969 180.361,93.554 181.047 C 93.139 181.733,92.800 182.553,92.800 182.869 C 92.800 183.185,92.378 184.333,91.863 185.421 C 90.464 188.374,88.206 193.559,87.431 195.600 C 87.055 196.590,86.310 198.255,85.774 199.300 C 85.238 200.345,84.800 201.444,84.800 201.741 C 84.800 202.038,84.379 203.074,83.863 204.042 C 83.348 205.011,82.704 206.478,82.432 207.302 C 82.160 208.126,81.792 208.800,81.613 208.800 C 81.435 208.800,81.166 209.458,81.015 210.262 C 80.768 211.576,79.914 213.657,77.572 218.644 C 77.147 219.548,76.800 220.448,76.800 220.644 C 76.800 220.840,76.240 222.170,75.556 223.600 C 73.019 228.902,72.798 229.412,72.799 229.965 C 72.800 230.276,72.374 231.266,71.854 232.165 C 71.334 233.064,70.789 234.457,70.643 235.260 C 70.498 236.063,70.123 236.932,69.810 237.192 C 69.497 237.452,69.028 238.325,68.768 239.132 C 68.508 239.939,68.163 240.780,68.000 241.000 C 67.837 241.220,67.476 242.120,67.198 243.000 C 66.919 243.880,66.266 245.409,65.745 246.397 C 65.225 247.385,64.800 248.477,64.800 248.824 C 64.800 249.918,62.280 252.787,60.607 253.596 C 58.417 254.657,47.365 254.862,45.851 253.870 C 44.869 253.227,44.238 251.301,44.780 250.600 C 44.950 250.380,45.216 249.671,45.371 249.024 C 45.526 248.378,45.979 247.388,46.377 246.824 C 46.775 246.261,47.223 245.234,47.373 244.541 C 47.523 243.849,47.985 242.976,48.400 242.600 C 48.815 242.224,49.265 241.416,49.399 240.805 C 49.687 239.495,52.098 233.855,52.688 233.113 C 52.912 232.831,53.317 231.912,53.588 231.072 C 53.859 230.232,54.310 229.456,54.591 229.348 C 56.253 228.710,56.231 223.171,54.552 219.600 C 53.983 218.390,53.086 216.482,52.558 215.360 C 52.031 214.238,51.594 213.158,51.587 212.960 C 51.581 212.762,51.041 211.525,50.387 210.210 C 49.734 208.896,49.200 207.574,49.200 207.273 C 49.200 206.972,48.840 206.269,48.400 205.709 C 47.960 205.150,47.600 204.308,47.600 203.839 C 47.600 203.370,47.174 202.359,46.654 201.593 C 46.133 200.827,45.572 199.570,45.407 198.800 C 45.242 198.030,44.776 197.086,44.372 196.702 C 43.968 196.317,43.513 195.343,43.362 194.535 C 43.210 193.728,42.662 192.442,42.143 191.678 C 41.624 190.914,41.200 189.964,41.200 189.568 C 41.200 189.171,41.022 188.737,40.805 188.603 C 40.588 188.469,40.116 187.346,39.756 186.109 C 39.396 184.871,38.674 183.053,38.151 182.069 C 37.628 181.086,37.200 179.967,37.200 179.583 C 37.200 179.200,36.974 178.799,36.699 178.693 C 36.423 178.587,35.954 177.803,35.657 176.950 C 35.154 175.507,34.647 174.345,32.423 169.533 C 31.949 168.506,31.456 167.021,31.328 166.233 C 31.200 165.445,30.956 164.800,30.787 164.800 C 29.470 164.800,29.213 159.132,30.500 158.478 C 31.980 157.727,41.685 157.568,45.723 158.229 M126.476 158.345 C 128.316 159.058,128.392 160.094,128.445 185.200 C 128.501 211.520,128.372 210.008,130.800 212.960 C 132.817 215.413,137.672 217.184,140.000 216.316 C 140.550 216.110,141.871 215.777,142.935 215.575 C 145.651 215.059,149.738 213.020,151.553 211.275 C 153.535 209.369,153.580 208.706,153.600 181.060 C 153.609 167.968,153.763 160.043,154.017 159.569 C 154.763 158.174,155.898 157.965,163.108 157.894 C 170.763 157.820,171.724 158.022,172.419 159.850 C 173.209 161.927,172.903 228.991,172.100 229.927 C 171.330 230.826,169.840 230.973,162.684 230.861 L 158.768 230.800 157.186 229.100 C 156.316 228.165,155.504 227.093,155.381 226.719 C 155.013 225.595,152.915 224.718,152.686 225.593 C 152.586 225.976,151.985 226.554,151.352 226.877 C 150.718 227.201,148.739 228.216,146.954 229.133 C 145.168 230.050,143.351 230.800,142.915 230.800 C 142.479 230.800,141.510 231.115,140.761 231.500 C 137.566 233.143,124.191 231.775,121.774 229.558 C 121.320 229.141,120.674 228.800,120.338 228.800 C 119.343 228.800,113.195 222.723,113.198 221.743 C 113.199 221.271,112.950 220.790,112.645 220.673 C 112.087 220.459,110.787 217.120,109.813 213.400 C 108.737 209.291,108.403 200.673,108.540 180.478 C 108.698 157.128,108.483 158.366,112.440 158.000 C 116.007 157.670,125.323 157.899,126.476 158.345 M335.648 201.818 C 334.024 202.358,332.007 202.800,331.165 202.800 C 330.193 202.800,329.098 203.164,328.162 203.800 C 327.351 204.350,326.398 204.805,326.044 204.812 C 325.060 204.830,323.034 206.866,321.779 209.098 L 320.653 211.101 321.356 212.940 C 323.943 219.714,336.476 219.554,343.262 212.660 L 345.200 210.691 345.200 206.408 C 345.200 200.329,343.122 199.331,335.648 201.818 " stroke="none" fill="#fbfbfb" fill-rule="evenodd"></path><path id="path2" d="M333.134 156.596 C 332.988 156.744,330.879 157.111,328.447 157.411 C 326.016 157.712,323.647 158.161,323.182 158.410 C 322.717 158.658,321.406 159.133,320.269 159.465 C 319.131 159.797,317.840 160.288,317.400 160.557 C 316.960 160.826,315.880 161.256,315.000 161.514 C 313.553 161.938,311.699 163.321,308.289 166.523 C 306.816 167.905,306.862 171.688,308.373 173.561 C 308.834 174.133,309.403 174.960,309.636 175.400 C 311.043 178.049,316.420 179.402,318.773 177.699 C 319.338 177.290,320.430 176.711,321.200 176.412 C 321.970 176.113,322.870 175.651,323.200 175.385 C 323.530 175.119,324.520 174.671,325.400 174.390 C 326.280 174.109,327.434 173.596,327.966 173.250 C 329.781 172.069,337.381 172.358,339.617 173.694 C 342.739 175.558,344.632 179.155,345.071 184.057 C 345.394 187.669,344.005 188.259,332.889 189.227 C 330.409 189.442,327.439 189.961,326.289 190.378 C 325.140 190.796,323.390 191.264,322.400 191.420 C 319.718 191.842,315.684 193.598,313.200 195.425 C 311.990 196.314,310.370 197.430,309.600 197.903 C 303.990 201.351,300.864 214.506,304.161 220.790 C 305.366 223.087,305.856 223.880,306.947 225.304 C 307.579 226.127,308.344 226.800,308.647 226.800 C 308.951 226.800,309.200 226.975,309.200 227.189 C 309.200 227.857,314.105 230.800,315.218 230.800 C 315.801 230.800,316.890 231.115,317.639 231.500 C 319.550 232.483,330.125 232.531,331.618 231.563 C 332.158 231.213,333.460 230.811,334.510 230.669 C 336.310 230.427,337.340 229.953,344.153 226.229 C 346.886 224.735,347.573 224.738,347.594 226.242 C 347.597 226.485,348.579 227.610,349.776 228.742 L 351.952 230.800 357.076 230.791 C 361.507 230.783,362.335 230.678,363.200 230.014 L 364.200 229.246 364.313 206.594 C 364.378 193.461,364.267 183.155,364.048 182.071 C 363.840 181.042,363.373 178.719,363.011 176.909 C 362.219 172.954,359.809 168.075,357.200 165.149 C 356.870 164.779,356.287 164.023,355.906 163.470 C 354.130 160.899,348.482 158.253,342.800 157.333 C 338.192 156.587,333.496 156.228,333.134 156.596 M219.725 157.564 C 217.856 158.040,213.200 160.072,213.200 160.411 C 213.200 160.572,212.615 160.934,211.900 161.216 C 211.185 161.499,210.240 162.047,209.800 162.435 C 208.174 163.869,206.913 163.829,206.595 162.334 C 205.677 158.018,194.276 155.628,190.649 158.990 L 189.600 159.962 189.600 194.537 C 189.600 226.905,189.645 229.167,190.302 229.978 C 191.021 230.866,204.763 231.374,207.195 230.602 C 208.730 230.114,208.800 228.960,208.800 203.948 C 208.800 186.421,208.929 179.301,209.257 178.674 C 209.807 177.623,213.215 174.404,213.791 174.391 C 214.016 174.386,214.650 174.030,215.200 173.600 C 216.796 172.351,224.873 172.424,226.280 173.700 C 231.104 178.073,231.200 178.722,231.200 206.833 C 231.200 228.261,231.239 229.512,231.931 230.138 C 233.114 231.208,247.915 231.121,249.256 230.036 L 250.200 229.271 250.400 205.136 L 250.600 181.000 251.656 178.800 C 252.810 176.394,253.767 175.327,256.200 173.732 C 258.466 172.246,264.960 172.125,266.699 173.536 C 267.305 174.027,268.115 174.534,268.500 174.661 C 268.885 174.789,269.200 175.127,269.200 175.413 C 269.200 175.699,269.652 176.263,270.204 176.667 C 271.626 177.705,271.981 184.185,271.992 209.230 L 272.000 229.061 272.908 229.914 C 274.001 230.941,281.084 231.453,286.800 230.918 L 290.200 230.600 291.000 229.000 C 292.250 226.500,291.835 180.138,290.524 175.800 C 287.538 165.920,284.255 161.867,276.600 158.608 C 272.750 156.970,259.002 156.744,256.200 158.273 C 255.320 158.754,253.939 159.348,253.132 159.594 C 252.325 159.840,251.448 160.302,251.183 160.620 C 250.918 160.939,250.496 161.200,250.245 161.200 C 249.994 161.200,248.636 162.386,247.227 163.835 C 243.626 167.538,243.053 167.874,242.481 166.619 C 241.373 164.187,237.337 160.266,234.400 158.770 C 231.659 157.373,223.199 156.678,219.725 157.564 M33.000 157.893 C 30.324 158.108,29.600 158.685,29.600 160.608 C 29.600 162.399,30.280 164.800,30.787 164.800 C 30.956 164.800,31.200 165.445,31.328 166.233 C 31.456 167.021,31.949 168.506,32.423 169.533 C 34.647 174.345,35.154 175.507,35.657 176.950 C 35.954 177.803,36.423 178.587,36.699 178.693 C 36.974 178.799,37.200 179.200,37.200 179.583 C 37.200 179.967,37.628 181.086,38.151 182.069 C 38.674 183.053,39.396 184.871,39.756 186.109 C 40.116 187.346,40.588 188.469,40.805 188.603 C 41.022 188.737,41.200 189.171,41.200 189.568 C 41.200 189.964,41.624 190.914,42.143 191.678 C 42.662 192.442,43.210 193.728,43.362 194.535 C 43.513 195.343,43.968 196.317,44.372 196.702 C 44.776 197.086,45.242 198.030,45.407 198.800 C 45.572 199.570,46.133 200.827,46.654 201.593 C 47.174 202.359,47.600 203.370,47.600 203.839 C 47.600 204.308,47.960 205.150,48.400 205.709 C 48.840 206.269,49.200 206.972,49.200 207.273 C 49.200 207.574,49.734 208.896,50.387 210.210 C 51.041 211.525,51.581 212.762,51.587 212.960 C 51.594 213.158,52.031 214.238,52.558 215.360 C 53.086 216.482,53.983 218.390,54.552 219.600 C 56.231 223.171,56.253 228.710,54.591 229.348 C 54.310 229.456,53.859 230.232,53.588 231.072 C 53.317 231.912,52.912 232.831,52.688 233.113 C 52.098 233.855,49.687 239.495,49.399 240.805 C 49.265 241.416,48.815 242.224,48.400 242.600 C 47.985 242.976,47.523 243.849,47.373 244.541 C 47.223 245.234,46.775 246.261,46.377 246.824 C 45.979 247.388,45.526 248.378,45.371 249.024 C 45.216 249.671,44.950 250.380,44.780 250.600 C 44.238 251.301,44.869 253.227,45.851 253.870 C 47.365 254.862,58.417 254.657,60.607 253.596 C 62.280 252.787,64.800 249.918,64.800 248.824 C 64.800 248.477,65.225 247.385,65.745 246.397 C 66.266 245.409,66.919 243.880,67.198 243.000 C 67.476 242.120,67.837 241.220,68.000 241.000 C 68.163 240.780,68.508 239.939,68.768 239.132 C 69.028 238.325,69.497 237.452,69.810 237.192 C 70.123 236.932,70.498 236.063,70.643 235.260 C 70.789 234.457,71.334 233.064,71.854 232.165 C 72.374 231.266,72.800 230.276,72.799 229.965 C 72.798 229.412,73.019 228.902,75.556 223.600 C 76.240 222.170,76.800 220.840,76.800 220.644 C 76.800 220.448,77.147 219.548,77.572 218.644 C 79.914 213.657,80.768 211.576,81.015 210.262 C 81.166 209.458,81.435 208.800,81.613 208.800 C 81.792 208.800,82.160 208.126,82.432 207.302 C 82.704 206.478,83.348 205.011,83.863 204.042 C 84.379 203.074,84.800 202.038,84.800 201.741 C 84.800 201.444,85.238 200.345,85.774 199.300 C 86.310 198.255,87.055 196.590,87.431 195.600 C 88.206 193.559,90.464 188.374,91.863 185.421 C 92.378 184.333,92.800 183.185,92.800 182.869 C 92.800 182.553,93.139 181.733,93.554 181.047 C 93.969 180.361,94.434 179.350,94.587 178.800 C 94.741 178.250,95.299 176.900,95.828 175.800 C 104.253 158.282,104.167 157.671,93.317 157.882 C 85.181 158.039,82.545 159.434,81.369 164.203 C 81.206 164.861,80.847 165.760,80.569 166.200 C 80.292 166.640,79.857 167.810,79.603 168.800 C 79.349 169.790,78.705 171.490,78.171 172.579 C 77.637 173.667,77.200 174.871,77.200 175.255 C 77.200 175.639,77.022 176.063,76.805 176.197 C 76.588 176.331,76.119 177.444,75.762 178.670 C 75.406 179.896,74.791 181.462,74.396 182.150 C 74.001 182.837,73.550 184.030,73.394 184.800 C 73.238 185.570,72.875 186.470,72.586 186.800 C 72.297 187.130,71.844 188.300,71.580 189.400 C 71.316 190.500,70.867 191.776,70.583 192.236 C 70.298 192.696,69.854 193.866,69.595 194.836 C 69.337 195.806,68.894 196.870,68.612 197.200 C 68.330 197.530,67.861 198.473,67.570 199.296 L 67.042 200.791 66.117 199.922 C 65.608 199.443,65.010 198.320,64.789 197.426 C 64.568 196.532,64.040 195.080,63.615 194.200 C 61.963 190.777,60.847 188.124,60.582 186.987 C 60.430 186.334,60.082 185.440,59.809 185.000 C 59.183 183.991,57.270 179.420,56.752 177.697 C 56.537 176.981,55.632 174.821,54.740 172.897 C 53.849 170.974,52.852 168.514,52.524 167.431 C 52.196 166.348,51.696 165.088,51.412 164.631 C 51.128 164.174,50.791 163.349,50.665 162.798 C 50.279 161.122,47.456 158.512,45.723 158.229 C 43.934 157.936,35.309 157.709,33.000 157.893 M112.440 158.000 C 108.483 158.366,108.698 157.128,108.540 180.478 C 108.403 200.673,108.737 209.291,109.813 213.400 C 110.787 217.120,112.087 220.459,112.645 220.673 C 112.950 220.790,113.199 221.271,113.198 221.743 C 113.195 222.723,119.343 228.800,120.338 228.800 C 120.674 228.800,121.320 229.141,121.774 229.558 C 124.191 231.775,137.566 233.143,140.761 231.500 C 141.510 231.115,142.479 230.800,142.915 230.800 C 143.351 230.800,145.168 230.050,146.954 229.133 C 148.739 228.216,150.718 227.201,151.352 226.877 C 151.985 226.554,152.586 225.976,152.686 225.593 C 152.915 224.718,155.013 225.595,155.381 226.719 C 155.504 227.093,156.316 228.165,157.186 229.100 L 158.768 230.800 162.684 230.861 C 169.840 230.973,171.330 230.826,172.100 229.927 C 172.903 228.991,173.209 161.927,172.419 159.850 C 171.724 158.022,170.763 157.820,163.108 157.894 C 155.898 157.965,154.763 158.174,154.017 159.569 C 153.763 160.043,153.609 167.968,153.600 181.060 C 153.580 208.706,153.535 209.369,151.553 211.275 C 149.738 213.020,145.651 215.059,142.935 215.575 C 141.871 215.777,140.550 216.110,140.000 216.316 C 137.672 217.184,132.817 215.413,130.800 212.960 C 128.372 210.008,128.501 211.520,128.445 185.200 C 128.392 160.094,128.316 159.058,126.476 158.345 C 125.323 157.899,116.007 157.670,112.440 158.000 M339.920 158.011 C 352.084 159.259,360.301 166.907,362.255 178.800 C 362.996 183.315,363.469 210.283,363.002 221.483 C 362.634 230.324,362.862 230.000,357.001 230.000 L 352.802 230.000 351.228 228.578 C 350.362 227.796,349.543 226.671,349.408 226.078 C 349.089 224.682,347.314 222.654,346.687 222.969 C 346.419 223.103,345.390 223.741,344.400 224.387 C 336.706 229.407,333.811 230.423,326.415 230.698 C 311.599 231.248,304.200 225.287,304.200 212.800 C 304.200 199.372,315.088 191.887,337.623 189.822 C 346.065 189.049,346.121 189.012,346.048 184.164 C 345.858 171.525,336.091 167.761,321.841 174.837 C 314.884 178.291,312.248 177.902,309.392 173.000 C 307.259 169.338,307.488 168.534,311.648 165.076 C 315.045 162.253,324.549 158.735,330.600 158.061 C 335.138 157.556,335.466 157.554,339.920 158.011 M231.721 158.977 C 235.657 160.366,238.322 162.562,241.179 166.769 C 243.217 169.770,242.895 169.807,246.443 166.164 C 252.699 159.741,258.337 157.600,267.598 158.129 C 278.961 158.780,285.486 163.685,288.877 174.127 L 290.200 178.200 290.200 203.285 C 290.200 226.819,290.156 228.415,289.487 229.085 C 288.196 230.379,275.165 230.524,273.899 229.259 C 273.516 228.877,273.349 223.138,273.180 204.680 C 272.994 184.407,272.860 180.263,272.330 178.469 C 269.983 170.518,258.736 168.806,252.311 175.421 C 249.481 178.334,249.462 178.522,249.218 204.936 L 249.000 228.471 248.045 229.245 C 247.168 229.954,246.506 230.009,240.056 229.909 L 233.023 229.800 232.517 228.800 C 232.128 228.030,232.010 222.662,232.006 205.483 C 231.999 178.243,231.849 177.060,228.000 173.729 C 223.444 169.787,215.421 170.851,209.485 176.185 C 207.840 177.664,207.721 179.594,207.664 205.773 C 207.630 221.566,207.478 229.082,207.188 229.373 C 206.303 230.260,192.688 230.161,191.574 229.260 L 190.600 228.471 190.491 194.663 L 190.382 160.854 191.799 159.774 C 195.440 156.997,203.846 159.069,205.669 163.192 L 206.737 165.610 208.269 164.740 C 209.111 164.261,211.029 163.076,212.530 162.106 C 218.719 158.110,225.931 156.934,231.721 158.977 M46.108 159.564 C 47.967 160.153,49.033 161.743,51.002 166.865 C 51.791 168.919,53.142 172.220,54.004 174.200 C 56.359 179.615,60.000 188.376,60.000 188.630 C 60.000 188.753,60.887 190.866,61.970 193.327 C 63.054 195.787,64.143 198.572,64.390 199.516 C 64.637 200.459,65.329 201.779,65.927 202.449 L 67.016 203.667 69.079 198.934 C 70.214 196.330,71.503 193.120,71.942 191.800 C 72.382 190.480,73.277 188.050,73.930 186.400 C 74.583 184.750,76.044 181.060,77.176 178.200 C 78.309 175.340,79.862 171.290,80.627 169.200 C 84.253 159.302,84.623 159.009,93.539 158.988 C 102.142 158.967,102.093 158.772,96.628 171.400 C 96.056 172.720,95.410 174.115,95.191 174.500 C 94.973 174.885,94.055 177.045,93.153 179.300 C 92.251 181.555,91.021 184.480,90.420 185.800 C 89.819 187.120,88.645 189.820,87.812 191.800 C 86.051 195.987,84.431 199.737,81.850 205.606 C 80.833 207.919,80.000 209.940,80.000 210.096 C 80.000 210.252,79.435 211.599,78.745 213.090 C 78.055 214.580,76.814 217.420,75.986 219.400 C 75.158 221.380,73.636 224.980,72.602 227.400 C 71.569 229.820,70.403 232.610,70.012 233.600 C 69.621 234.590,68.709 236.660,67.987 238.200 C 66.675 240.998,65.878 242.947,64.431 246.900 C 62.508 252.155,60.382 253.306,52.626 253.293 C 44.327 253.280,44.426 253.675,49.827 242.200 C 59.056 222.593,58.590 225.584,53.955 215.676 C 53.100 213.848,52.400 212.251,52.400 212.127 C 52.400 211.914,50.210 206.840,48.979 204.200 C 47.380 200.771,41.559 187.456,40.672 185.200 C 40.110 183.770,38.453 179.990,36.989 176.800 C 30.250 162.114,29.729 160.070,32.509 159.226 C 34.216 158.709,44.190 158.956,46.108 159.564 M124.453 159.228 C 127.117 159.920,126.979 158.587,127.033 184.152 C 127.088 209.576,127.115 209.903,129.473 213.306 C 133.742 219.465,145.384 218.779,152.600 211.942 L 154.200 210.426 154.400 185.627 C 154.624 157.799,154.377 159.805,157.661 159.171 C 160.986 158.528,168.455 158.728,169.989 159.501 C 172.044 160.536,172.029 160.241,171.909 195.859 C 171.780 234.211,172.656 229.742,165.236 229.931 L 160.098 230.062 158.742 228.871 C 157.996 228.216,156.869 226.599,156.237 225.278 L 155.089 222.876 153.645 223.677 C 152.850 224.118,151.840 224.807,151.400 225.210 C 145.310 230.783,130.951 232.587,123.000 228.777 C 115.034 224.960,110.705 217.467,110.069 206.400 C 109.394 194.652,109.738 160.954,110.542 160.065 C 111.640 158.851,120.865 158.296,124.453 159.228 M336.524 200.424 C 335.162 200.601,333.722 200.917,333.324 201.125 C 332.926 201.334,331.641 201.707,330.469 201.955 C 317.306 204.736,316.324 218.099,329.209 219.093 C 335.074 219.546,343.409 215.851,345.456 211.891 C 346.445 209.979,346.404 201.285,345.402 200.552 C 344.567 199.941,340.663 199.885,336.524 200.424 M344.469 201.462 C 345.090 202.025,345.200 202.766,345.200 206.408 L 345.200 210.691 343.262 212.660 C 336.476 219.554,323.943 219.714,321.356 212.940 L 320.653 211.101 321.779 209.098 C 323.034 206.866,325.060 204.830,326.044 204.812 C 326.398 204.805,327.351 204.350,328.162 203.800 C 329.098 203.164,330.193 202.800,331.165 202.800 C 332.007 202.800,334.024 202.358,335.648 201.818 C 339.243 200.622,343.357 200.456,344.469 201.462 " stroke="none" fill="#9cdda3" fill-rule="evenodd"></path><path id="path3" d="M334.500 157.887 C 335.105 157.978,336.095 157.978,336.700 157.887 C 337.305 157.795,336.810 157.720,335.600 157.720 C 334.390 157.720,333.895 157.795,334.500 157.887 M258.600 158.678 C 257.290 158.981,252.630 160.853,252.220 161.241 C 251.655 161.774,252.161 161.677,253.454 161.002 C 254.084 160.674,254.892 160.404,255.249 160.402 C 255.605 160.401,256.865 159.960,258.049 159.423 C 260.132 158.477,260.269 158.292,258.600 158.678 M348.313 160.756 C 349.696 161.660,351.141 162.400,351.524 162.400 C 351.908 162.400,352.667 162.684,353.211 163.030 C 353.927 163.487,353.869 163.374,353.000 162.622 C 351.757 161.545,348.544 159.869,346.800 159.388 C 346.250 159.237,346.931 159.852,348.313 160.756 M234.200 160.355 C 234.860 160.768,236.120 161.773,237.000 162.588 C 237.880 163.403,239.049 164.459,239.597 164.935 L 240.594 165.800 239.797 164.803 C 238.184 162.787,234.288 159.599,233.440 159.601 C 233.198 159.602,233.540 159.941,234.200 160.355 M48.400 161.822 C 48.400 162.042,48.644 162.577,48.942 163.011 C 49.241 163.445,49.794 164.743,50.173 165.895 C 50.551 167.048,51.058 168.112,51.299 168.261 C 51.594 168.443,51.632 168.283,51.417 167.766 C 51.241 167.345,50.750 166.115,50.326 165.034 C 49.526 163.000,48.400 161.121,48.400 161.822 M126.492 169.200 L 126.529 177.000 126.913 170.071 C 127.177 165.287,127.166 162.872,126.875 162.271 C 126.566 161.632,126.464 163.479,126.492 169.200 M83.000 163.200 C 82.659 163.860,82.469 164.400,82.579 164.400 C 82.689 164.400,83.059 163.860,83.400 163.200 C 83.741 162.540,83.931 162.000,83.821 162.000 C 83.711 162.000,83.341 162.540,83.000 163.200 M109.709 163.600 C 109.709 164.590,109.787 164.995,109.882 164.500 C 109.978 164.005,109.978 163.195,109.882 162.700 C 109.787 162.205,109.709 162.610,109.709 163.600 M171.791 194.800 C 171.791 212.730,171.840 220.065,171.900 211.100 C 171.960 202.135,171.960 187.465,171.900 178.500 C 171.840 169.535,171.791 176.870,171.791 194.800 M282.783 164.100 C 284.441 165.866,284.800 166.184,284.800 165.883 C 284.800 165.819,283.945 164.964,282.900 163.983 L 281.000 162.200 282.783 164.100 M205.438 163.600 C 206.229 166.603,207.499 167.345,208.683 165.494 C 208.857 165.222,209.495 164.744,210.100 164.432 C 210.705 164.120,211.200 163.702,211.200 163.502 C 211.200 163.303,210.206 163.678,208.992 164.336 L 206.784 165.532 205.979 164.066 C 205.423 163.052,205.256 162.908,205.438 163.600 M314.167 163.314 C 312.926 164.038,311.200 165.477,311.200 165.788 C 311.200 165.938,311.695 165.679,312.300 165.213 C 312.905 164.747,313.850 164.019,314.400 163.596 C 315.530 162.727,315.414 162.587,314.167 163.314 M98.650 165.591 C 97.747 167.847,97.887 168.183,98.837 166.042 C 99.266 165.075,99.545 164.212,99.458 164.125 C 99.371 164.038,99.008 164.698,98.650 165.591 M245.717 166.900 C 245.309 167.395,244.558 168.159,244.048 168.598 L 243.121 169.396 242.154 168.198 L 241.188 167.000 241.625 168.277 C 242.582 171.073,243.715 171.002,245.541 168.034 C 246.869 165.876,246.940 165.414,245.717 166.900 M33.245 168.300 C 33.697 169.657,34.000 169.968,34.000 169.076 C 34.000 168.789,33.732 168.204,33.405 167.776 C 32.862 167.066,32.848 167.111,33.245 168.300 M96.344 171.033 C 95.898 172.042,95.604 172.938,95.691 173.024 C 95.778 173.111,96.227 172.286,96.690 171.191 C 97.153 170.096,97.447 169.200,97.343 169.200 C 97.240 169.200,96.790 170.025,96.344 171.033 M109.775 179.600 C 109.775 185.430,109.831 187.815,109.899 184.900 C 109.967 181.985,109.967 177.215,109.899 174.300 C 109.831 171.385,109.775 173.770,109.775 179.600 M217.400 171.434 L 216.200 172.002 217.800 171.733 C 218.680 171.585,220.518 171.450,221.885 171.432 C 223.251 171.414,224.061 171.278,223.685 171.128 C 222.494 170.655,218.648 170.842,217.400 171.434 M259.800 171.210 C 259.266 171.447,259.598 171.486,260.800 171.327 C 261.790 171.196,262.675 171.024,262.767 170.944 C 263.114 170.643,260.564 170.872,259.800 171.210 M35.078 172.595 C 35.444 173.362,35.814 173.919,35.901 173.832 C 36.084 173.649,34.870 171.200,34.596 171.200 C 34.495 171.200,34.712 171.828,35.078 172.595 M255.144 172.824 L 254.200 173.647 255.400 172.945 C 256.979 172.020,257.003 172.000,256.511 172.000 C 256.279 172.000,255.664 172.371,255.144 172.824 M267.400 172.464 C 268.811 173.240,271.275 175.763,271.830 177.000 C 272.126 177.660,272.376 177.905,272.384 177.544 C 272.417 176.193,268.357 172.033,267.000 172.026 C 266.780 172.025,266.960 172.222,267.400 172.464 M342.422 174.235 C 344.604 176.637,344.894 177.102,345.474 179.122 L 346.014 181.000 345.788 179.200 C 345.531 177.145,344.029 174.745,342.230 173.512 C 341.002 172.672,341.003 172.673,342.422 174.235 M209.200 175.858 C 207.264 177.226,206.645 180.861,207.573 185.400 C 207.835 186.681,207.905 186.237,207.923 183.181 C 207.950 178.388,208.210 177.364,209.758 175.955 C 211.274 174.574,211.067 174.538,209.200 175.858 M251.247 176.150 C 250.372 177.081,249.193 180.615,249.227 182.200 C 249.236 182.640,249.595 181.661,250.023 180.025 C 250.452 178.388,251.193 176.633,251.671 176.125 C 252.149 175.616,252.449 175.200,252.339 175.200 C 252.229 175.200,251.738 175.628,251.247 176.150 M54.416 175.829 C 54.407 176.064,54.766 176.964,55.214 177.829 C 55.690 178.747,55.919 178.984,55.764 178.400 C 55.435 177.152,54.438 175.250,54.416 175.829 M317.400 176.614 C 316.400 177.096,316.366 177.151,317.200 176.948 C 318.333 176.671,319.607 176.021,319.000 176.030 C 318.780 176.033,318.060 176.296,317.400 176.614 M76.850 179.050 C 76.373 180.296,76.050 181.384,76.133 181.466 C 76.215 181.549,76.673 180.596,77.150 179.350 C 77.627 178.104,77.950 177.016,77.867 176.934 C 77.785 176.851,77.327 177.804,76.850 179.050 M289.893 181.600 C 290.010 184.130,290.173 186.275,290.253 186.367 C 290.524 186.674,290.333 181.021,290.005 179.000 C 289.791 177.686,289.752 178.577,289.893 181.600 M56.228 180.400 C 56.372 180.950,56.650 181.571,56.845 181.780 C 57.416 182.391,57.241 181.514,56.569 180.400 L 55.967 179.400 56.228 180.400 M272.983 181.200 C 273.096 181.750,273.192 191.995,273.195 203.967 C 273.198 215.938,273.280 225.653,273.378 225.556 C 273.816 225.117,273.678 182.168,273.235 181.200 L 272.777 180.200 272.983 181.200 M126.964 187.800 C 126.963 191.540,127.023 193.124,127.097 191.320 C 127.171 189.515,127.172 186.455,127.098 184.520 C 127.025 182.584,126.964 184.060,126.964 187.800 M91.055 183.455 C 90.676 184.249,90.453 184.986,90.559 185.093 C 90.666 185.199,91.036 184.609,91.382 183.782 C 92.198 181.829,91.949 181.580,91.055 183.455 M232.120 184.800 C 232.120 186.010,232.195 186.505,232.287 185.900 C 232.378 185.295,232.378 184.305,232.287 183.700 C 232.195 183.095,232.120 183.590,232.120 184.800 M57.632 183.513 C 57.584 184.279,58.650 186.660,59.189 186.993 C 59.447 187.153,59.311 186.590,58.885 185.742 C 58.459 184.894,58.010 183.930,57.887 183.600 C 57.741 183.210,57.652 183.179,57.632 183.513 M346.063 186.224 C 345.941 188.590,344.198 189.560,340.000 189.597 C 339.010 189.605,337.930 189.787,337.600 190.000 C 337.191 190.264,338.289 190.390,341.056 190.394 C 346.156 190.402,346.760 190.017,346.378 187.000 C 346.211 185.672,346.105 185.411,346.063 186.224 M73.300 188.100 C 72.870 189.275,72.880 189.326,73.412 188.624 C 73.921 187.952,74.221 186.800,73.888 186.800 C 73.826 186.800,73.561 187.385,73.300 188.100 M362.700 187.433 C 362.535 187.598,362.418 195.848,362.440 205.767 C 362.466 217.560,362.606 223.263,362.844 222.249 C 363.276 220.413,363.137 186.996,362.700 187.433 M42.000 188.470 C 42.000 188.582,43.005 190.817,44.233 193.437 C 45.461 196.057,46.351 197.660,46.211 197.000 C 45.909 195.571,42.000 187.655,42.000 188.470 M154.501 193.800 C 154.505 194.680,154.587 194.993,154.683 194.495 C 154.779 193.998,154.775 193.278,154.675 192.895 C 154.575 192.513,154.496 192.920,154.501 193.800 M320.200 193.240 C 317.419 194.346,315.600 195.206,315.600 195.413 C 315.600 195.509,316.507 195.231,317.615 194.794 C 318.723 194.357,319.938 193.999,320.315 193.997 C 320.692 193.996,321.540 193.637,322.200 193.200 C 323.723 192.192,322.787 192.210,320.200 193.240 M62.009 194.456 C 62.004 195.036,62.354 195.936,62.787 196.456 C 63.792 197.662,63.798 197.323,62.809 195.144 C 62.123 193.632,62.016 193.541,62.009 194.456 M232.182 210.000 C 232.182 218.910,232.235 222.555,232.300 218.100 C 232.364 213.645,232.364 206.355,232.300 201.900 C 232.235 197.445,232.182 201.090,232.182 210.000 M248.981 208.800 C 248.981 217.050,249.034 220.425,249.099 216.300 C 249.164 212.175,249.164 205.425,249.099 201.300 C 249.034 197.175,248.981 200.550,248.981 208.800 M290.167 205.800 C 290.167 209.980,290.226 211.636,290.298 209.479 C 290.371 207.323,290.370 203.903,290.298 201.879 C 290.225 199.856,290.166 201.620,290.167 205.800 M67.998 201.405 L 67.092 203.638 66.146 202.749 C 64.938 201.614,64.943 201.896,66.161 203.547 C 67.244 205.015,67.329 204.945,68.393 201.720 C 69.379 198.732,69.155 198.553,67.998 201.405 M342.800 199.600 L 341.000 199.880 342.824 199.940 C 344.937 200.010,345.873 200.595,346.117 202.000 C 346.265 202.850,346.299 202.809,346.346 201.729 C 346.395 200.566,345.528 199.115,344.871 199.260 C 344.722 199.293,343.790 199.446,342.800 199.600 M333.289 200.665 C 332.568 201.020,332.057 201.390,332.154 201.488 C 332.252 201.585,332.718 201.458,333.190 201.206 C 333.662 200.953,335.162 200.601,336.524 200.424 L 339.000 200.101 336.800 200.060 C 335.502 200.035,334.062 200.283,333.289 200.665 M126.937 205.000 C 126.939 206.760,127.009 207.430,127.093 206.489 C 127.178 205.549,127.177 204.109,127.091 203.289 C 127.005 202.470,126.936 203.240,126.937 205.000 M154.534 205.600 C 154.534 207.250,154.605 207.925,154.691 207.100 C 154.778 206.275,154.778 204.925,154.691 204.100 C 154.605 203.275,154.534 203.950,154.534 205.600 M49.069 204.462 C 49.528 205.380,49.852 205.696,49.939 205.312 C 50.015 204.975,49.687 204.318,49.208 203.850 L 48.339 203.000 49.069 204.462 M321.941 205.779 C 320.847 206.796,320.419 207.571,320.233 208.868 L 319.985 210.600 320.622 208.857 C 320.972 207.899,321.870 206.504,322.616 205.757 C 324.378 203.996,323.839 204.013,321.941 205.779 M51.200 208.844 C 51.200 209.196,53.073 213.845,53.535 214.641 C 54.303 215.964,54.036 214.754,52.959 212.031 C 52.057 209.749,51.200 208.197,51.200 208.844 M304.146 213.000 C 304.147 215.200,304.214 216.049,304.295 214.887 C 304.376 213.724,304.376 211.924,304.293 210.887 C 304.211 209.849,304.145 210.800,304.146 213.000 M128.400 212.144 C 128.400 214.257,132.792 217.662,135.400 217.571 C 135.872 217.555,135.545 217.309,134.600 216.971 C 131.926 216.014,131.144 215.478,129.744 213.645 C 129.005 212.677,128.400 212.001,128.400 212.144 M148.870 214.690 C 148.358 215.046,146.558 215.852,144.870 216.480 C 141.704 217.659,142.166 217.729,145.974 216.650 C 147.170 216.311,148.606 215.576,149.165 215.017 C 150.323 213.859,150.222 213.748,148.870 214.690 M290.159 220.400 C 290.159 223.590,290.221 224.895,290.297 223.300 C 290.373 221.705,290.373 219.095,290.297 217.500 C 290.221 215.905,290.159 217.210,290.159 220.400 M320.400 215.324 C 320.400 216.693,322.998 218.802,324.647 218.772 L 326.200 218.743 324.600 218.017 C 323.720 217.618,322.415 216.709,321.700 215.998 C 320.817 215.120,320.400 214.904,320.400 215.324 M138.905 217.887 C 139.514 217.979,140.414 217.977,140.905 217.882 C 141.397 217.787,140.900 217.711,139.800 217.714 C 138.700 217.717,138.297 217.795,138.905 217.887 M114.622 221.896 C 115.032 222.609,116.365 224.038,117.584 225.072 L 119.800 226.951 117.015 223.976 C 115.484 222.339,114.151 220.910,114.053 220.800 C 113.956 220.690,114.211 221.183,114.622 221.896 M153.928 222.100 C 153.585 222.375,152.610 223.410,151.763 224.400 C 150.916 225.390,150.667 225.812,151.211 225.338 C 151.755 224.864,152.830 224.124,153.600 223.693 L 155.000 222.910 155.902 224.555 L 156.804 226.200 156.549 224.600 C 156.094 221.740,155.311 220.993,153.928 222.100 M344.096 223.807 C 341.843 226.032,342.023 226.007,345.584 223.600 C 347.157 222.537,348.055 223.013,349.306 225.573 C 349.479 225.926,349.514 225.676,349.388 225.000 C 348.701 221.323,347.000 220.940,344.096 223.807 M207.693 224.400 C 207.693 225.170,207.775 225.485,207.876 225.100 C 207.976 224.715,207.976 224.085,207.876 223.700 C 207.775 223.315,207.693 223.630,207.693 224.400 M328.800 230.400 L 327.000 230.680 328.600 230.693 C 329.480 230.700,330.740 230.568,331.400 230.400 C 333.000 229.993,331.419 229.993,328.800 230.400 M129.700 230.687 C 130.305 230.778,131.295 230.778,131.900 230.687 C 132.505 230.595,132.010 230.520,130.800 230.520 C 129.590 230.520,129.095 230.595,129.700 230.687 M52.817 235.624 C 52.101 237.177,51.600 238.533,51.703 238.637 C 51.914 238.847,53.812 235.098,54.203 233.700 C 54.669 232.030,54.126 232.784,52.817 235.624 M64.665 244.974 C 64.079 246.170,63.600 247.365,63.600 247.628 C 63.600 247.890,63.225 248.757,62.766 249.553 L 61.932 251.000 62.964 249.800 C 63.532 249.140,63.999 248.330,64.002 248.000 C 64.005 247.670,64.460 246.429,65.012 245.242 C 66.335 242.401,66.038 242.171,64.665 244.974 " stroke="none" fill="#7cd48c" fill-rule="evenodd"></path><path id="path4" d="M221.800 158.250 C 217.158 159.415,211.212 162.322,211.203 163.432 C 211.202 163.670,210.716 164.120,210.125 164.432 C 209.060 164.994,207.028 166.800,207.460 166.800 C 207.584 166.800,208.219 166.350,208.873 165.800 C 209.527 165.250,210.286 164.800,210.561 164.800 C 210.836 164.800,211.483 164.350,212.000 163.800 C 212.517 163.250,213.164 162.800,213.439 162.800 C 213.714 162.800,214.447 162.372,215.069 161.849 C 215.706 161.313,217.248 160.682,218.600 160.403 C 219.920 160.131,221.486 159.659,222.080 159.354 C 223.254 158.752,229.014 158.575,229.357 159.131 C 229.470 159.313,230.622 159.783,231.918 160.175 C 234.471 160.948,238.480 164.258,239.702 166.601 C 240.046 167.261,240.929 168.442,241.664 169.226 C 242.399 170.011,242.793 170.371,242.540 170.026 C 242.287 169.682,241.783 168.680,241.421 167.800 C 238.873 161.609,228.512 156.567,221.800 158.250 M261.000 158.345 C 260.340 158.521,258.922 159.056,257.849 159.533 C 256.776 160.010,255.635 160.400,255.314 160.400 C 252.761 160.400,247.963 164.032,245.804 167.600 C 244.806 169.247,244.983 169.129,247.884 166.200 C 249.628 164.440,251.582 162.717,252.227 162.371 C 252.872 162.025,253.760 161.543,254.200 161.299 C 258.243 159.061,268.269 158.186,272.012 159.745 C 272.775 160.064,274.300 160.456,275.400 160.618 C 276.569 160.790,277.870 161.304,278.531 161.856 C 279.153 162.375,279.816 162.800,280.004 162.800 C 280.504 162.800,285.198 167.720,285.199 168.244 C 285.200 168.488,285.634 169.328,286.164 170.110 C 286.695 170.891,287.344 172.569,287.608 173.838 C 287.871 175.108,288.356 176.878,288.686 177.773 C 289.374 179.645,289.910 213.134,289.404 222.636 C 289.047 229.340,289.215 229.200,281.515 229.200 C 273.722 229.200,274.637 232.423,274.397 204.133 C 274.163 176.693,274.220 177.173,270.814 173.755 C 263.969 166.885,252.330 169.953,249.132 179.471 L 248.000 182.838 247.990 204.119 C 247.978 231.652,248.729 229.185,240.362 229.194 C 232.089 229.203,233.041 232.492,232.800 203.059 L 232.600 178.600 231.641 176.723 C 229.037 171.630,223.388 168.954,218.520 170.508 C 217.464 170.845,216.006 171.245,215.280 171.397 C 212.712 171.933,207.170 176.328,207.240 177.774 C 207.279 178.575,207.288 178.574,207.540 177.733 C 207.760 177.002,211.512 174.000,212.207 174.000 C 212.331 174.000,212.950 173.618,213.582 173.150 C 218.898 169.220,227.229 170.758,230.104 176.200 C 232.128 180.031,232.143 180.237,232.276 205.359 C 232.364 222.019,232.532 229.077,232.849 229.459 C 233.636 230.408,246.838 230.222,248.044 229.245 L 248.977 228.490 248.892 212.945 C 248.798 195.629,249.267 180.579,249.972 178.303 C 250.761 175.757,255.164 172.311,258.739 171.443 C 264.618 170.013,272.400 173.631,272.400 177.793 C 272.400 178.292,272.688 179.487,273.041 180.450 C 273.605 181.989,273.674 185.033,273.619 205.674 C 273.557 228.728,273.571 229.156,274.352 229.574 C 275.811 230.355,288.159 230.127,289.156 229.300 C 289.990 228.608,290.002 228.359,290.170 208.600 C 290.478 172.287,289.850 169.559,279.287 161.330 C 276.258 158.970,265.336 157.188,261.000 158.345 M327.997 158.401 C 326.785 158.591,325.255 159.028,324.597 159.371 C 323.939 159.714,322.940 159.996,322.379 159.998 C 321.139 160.001,315.606 162.701,313.400 164.379 C 312.520 165.049,311.219 165.869,310.508 166.201 C 307.747 167.490,307.431 169.705,309.539 172.985 C 312.831 178.107,314.170 178.230,322.600 174.180 C 331.654 169.830,340.272 170.337,344.174 175.447 C 345.671 177.408,345.841 178.165,346.225 184.573 C 346.485 188.908,347.118 189.754,347.251 185.944 C 347.620 175.413,342.302 169.484,333.052 170.115 C 328.734 170.410,322.734 172.546,319.493 174.942 C 316.231 177.354,312.059 175.817,309.963 171.432 L 308.832 169.064 310.169 167.832 C 310.904 167.154,311.929 166.251,312.445 165.825 C 313.536 164.925,317.592 162.813,318.244 162.805 C 318.488 162.802,319.315 162.375,320.081 161.855 C 320.847 161.335,322.350 160.778,323.420 160.618 C 324.491 160.457,326.454 159.985,327.783 159.568 C 331.236 158.485,340.717 158.469,343.485 159.542 C 345.502 160.323,348.000 160.907,348.000 160.597 C 348.000 158.695,335.117 157.281,327.997 158.401 M32.509 159.226 C 30.094 159.959,30.465 163.530,33.390 167.707 C 33.725 168.186,34.000 168.854,34.000 169.192 C 34.000 169.530,34.450 170.652,35.000 171.685 C 35.550 172.718,36.000 173.779,36.000 174.042 C 36.000 174.305,36.434 175.438,36.965 176.560 C 37.496 177.682,38.965 180.940,40.229 183.800 C 41.494 186.660,43.302 190.530,44.247 192.400 C 45.192 194.270,46.133 196.520,46.338 197.400 C 46.839 199.555,48.565 203.307,49.358 203.965 C 49.711 204.258,50.000 204.914,50.000 205.423 C 50.000 206.644,50.694 208.427,51.380 208.967 C 52.037 209.485,54.000 214.337,54.000 215.442 C 54.000 215.871,54.235 216.577,54.522 217.011 C 55.179 218.004,57.085 222.648,57.420 224.070 C 57.601 224.839,57.215 226.193,56.053 228.870 C 55.163 230.922,54.308 233.140,54.153 233.800 C 53.880 234.965,51.977 238.773,51.191 239.728 C 50.452 240.626,48.000 245.716,47.998 246.357 C 47.997 246.711,47.552 247.720,47.010 248.600 C 45.906 250.393,45.760 251.520,46.502 252.534 C 47.218 253.513,57.453 253.629,59.682 252.684 C 61.123 252.073,63.574 248.928,63.592 247.666 C 63.599 247.168,65.406 243.071,66.620 240.800 C 67.844 238.509,70.000 233.860,70.000 233.511 C 70.000 233.103,71.754 228.957,73.676 224.819 C 74.336 223.399,75.231 221.329,75.666 220.219 C 76.560 217.935,78.152 214.191,79.257 211.774 C 79.666 210.879,80.000 209.884,80.000 209.563 C 80.000 209.241,80.276 208.584,80.613 208.102 C 81.337 207.070,84.968 198.741,86.046 195.643 C 86.459 194.457,86.960 193.287,87.159 193.043 C 87.359 192.799,88.177 190.890,88.978 188.800 C 90.693 184.323,92.328 180.519,93.018 179.400 C 93.289 178.960,93.724 177.880,93.986 177.000 C 94.471 175.364,94.656 174.915,96.704 170.400 C 97.353 168.970,98.285 166.810,98.777 165.600 C 99.268 164.390,99.919 162.833,100.224 162.140 C 100.721 161.009,100.700 160.781,100.028 159.927 C 98.295 157.724,84.000 159.034,84.000 161.396 C 84.000 161.748,83.550 162.882,83.000 163.915 C 82.450 164.948,82.000 166.041,82.000 166.342 C 82.000 166.644,81.649 167.546,81.220 168.346 C 80.313 170.036,78.875 173.817,77.624 177.800 C 77.140 179.340,76.228 181.618,75.597 182.862 C 74.967 184.107,74.329 185.773,74.180 186.566 C 74.031 187.358,73.596 188.410,73.212 188.903 C 72.829 189.397,72.061 191.150,71.505 192.800 C 69.246 199.512,67.539 204.216,67.263 204.494 C 66.842 204.919,64.937 201.822,64.152 199.437 C 63.784 198.317,63.149 196.971,62.741 196.446 C 62.333 195.921,62.000 195.020,62.000 194.442 C 62.000 193.357,59.878 188.162,58.714 186.400 C 58.351 185.850,57.931 184.860,57.780 184.200 C 57.628 183.540,57.291 182.640,57.029 182.200 C 56.767 181.760,56.225 180.500,55.824 179.400 C 55.423 178.300,54.938 177.229,54.747 177.020 C 54.556 176.811,54.400 176.384,54.400 176.070 C 54.400 175.559,52.826 171.798,50.760 167.374 C 50.342 166.479,50.000 165.617,50.000 165.457 C 50.000 163.834,47.459 159.993,46.101 159.562 C 44.189 158.956,34.213 158.710,32.509 159.226 M112.142 159.080 C 109.878 159.515,109.960 158.437,110.102 186.047 L 110.233 211.400 111.284 214.493 C 113.316 220.480,118.034 226.203,123.057 228.777 C 130.609 232.647,145.181 230.630,151.334 224.863 C 153.336 222.987,153.499 222.064,151.546 223.661 C 150.564 224.465,149.139 225.413,148.380 225.768 C 147.621 226.124,146.550 226.678,146.000 227.000 C 136.451 232.595,121.501 229.840,115.796 221.432 C 114.203 219.085,112.400 215.058,112.400 213.848 C 112.400 213.258,112.085 212.105,111.700 211.287 C 111.061 209.930,110.990 207.656,110.886 185.347 L 110.771 160.894 111.886 160.608 C 113.494 160.195,124.916 160.356,125.358 160.798 C 125.578 161.018,125.753 170.706,125.786 184.485 C 125.835 205.002,125.919 207.968,126.486 209.200 C 126.841 209.970,127.333 211.230,127.580 212.000 C 127.827 212.770,128.671 214.120,129.455 215.000 C 130.916 216.640,130.903 216.447,129.391 214.000 C 126.924 210.011,126.881 209.539,126.643 183.882 C 126.523 170.947,126.322 160.197,126.195 159.993 C 125.608 159.042,115.687 158.397,112.142 159.080 M157.473 159.173 C 154.399 159.797,154.602 157.989,154.583 184.915 C 154.563 212.830,154.875 210.368,150.953 213.587 C 147.989 216.019,147.454 216.272,142.400 217.632 C 140.643 218.105,134.670 217.672,132.932 216.946 C 130.949 216.117,130.848 216.286,132.607 217.493 C 134.084 218.505,134.492 218.584,138.200 218.577 C 144.127 218.565,148.625 217.004,152.249 213.700 C 152.792 213.205,153.404 212.800,153.609 212.800 C 155.489 212.800,155.733 209.514,155.769 183.686 C 155.796 164.132,155.879 161.122,156.400 160.792 C 157.497 160.098,169.446 160.303,170.171 161.029 C 171.107 161.964,171.130 225.401,170.196 227.208 C 169.324 228.894,168.466 229.200,164.610 229.200 C 160.344 229.200,159.252 228.537,157.528 224.900 C 156.054 221.792,155.972 221.792,156.620 224.895 C 157.040 226.908,157.422 227.648,158.598 228.726 L 160.056 230.062 165.168 229.931 C 168.750 229.839,170.477 229.636,170.940 229.251 C 171.544 228.749,171.600 225.800,171.600 194.560 L 171.600 160.418 170.520 159.709 C 169.326 158.926,160.479 158.562,157.473 159.173 M191.684 159.865 L 190.368 161.000 190.484 194.735 L 190.600 228.471 191.544 229.235 C 192.610 230.098,204.509 230.395,206.574 229.610 L 207.600 229.220 207.598 207.910 C 207.596 196.189,207.461 185.070,207.298 183.200 C 207.114 181.103,206.923 188.852,206.800 203.418 C 206.616 225.154,206.543 227.122,205.891 228.118 L 205.182 229.200 199.200 229.200 L 193.218 229.200 192.509 228.118 C 191.845 227.104,191.800 224.956,191.800 194.086 C 191.800 155.791,191.231 159.805,196.600 160.197 C 203.296 160.686,202.872 160.511,204.325 163.371 C 205.036 164.771,205.912 166.161,206.271 166.459 C 206.874 166.959,206.875 166.905,206.283 165.760 C 205.930 165.079,205.433 163.690,205.177 162.675 C 204.275 159.094,194.854 157.132,191.684 159.865 M45.700 160.595 C 46.525 160.757,47.200 161.114,47.200 161.389 C 47.200 161.664,47.650 162.551,48.200 163.362 C 48.750 164.172,49.200 165.057,49.200 165.328 C 49.200 165.599,49.734 166.896,50.387 168.210 C 51.041 169.525,51.581 170.870,51.589 171.200 C 51.597 171.530,51.935 172.344,52.341 173.010 C 52.746 173.675,53.309 174.935,53.591 175.810 C 53.873 176.684,54.334 177.850,54.616 178.400 C 54.898 178.950,55.346 180.030,55.610 180.800 C 55.875 181.570,56.431 182.965,56.846 183.900 C 57.261 184.835,57.939 186.365,58.352 187.300 C 58.766 188.235,59.411 189.855,59.785 190.900 C 60.160 191.945,60.631 192.800,60.833 192.800 C 61.035 192.800,61.200 193.219,61.200 193.732 C 61.200 194.245,61.646 195.546,62.192 196.623 C 62.737 197.701,63.402 199.560,63.670 200.756 C 64.014 202.293,64.553 203.327,65.513 204.286 L 66.869 205.643 67.635 204.760 C 68.056 204.275,68.400 203.726,68.400 203.540 C 68.400 203.219,70.158 199.195,71.437 196.588 C 71.764 195.921,72.278 194.391,72.579 193.188 C 73.115 191.043,74.816 186.541,75.655 185.042 C 75.888 184.625,76.405 183.365,76.802 182.242 C 78.079 178.637,78.848 176.629,79.423 175.400 C 79.732 174.740,80.335 173.210,80.763 172.000 C 82.569 166.892,83.122 165.538,84.320 163.290 L 85.583 160.920 88.291 160.507 C 90.779 160.127,97.953 160.179,99.078 160.586 C 99.602 160.775,99.513 161.148,97.851 165.722 C 97.307 167.218,96.692 168.658,96.483 168.922 C 96.275 169.185,95.877 170.120,95.600 171.000 C 95.323 171.880,94.946 172.791,94.762 173.024 C 94.374 173.516,92.107 178.879,91.598 180.507 C 91.249 181.623,89.724 185.011,88.405 187.600 C 88.013 188.370,87.563 189.450,87.406 190.000 C 87.142 190.921,86.330 192.802,84.362 197.044 C 83.943 197.948,83.600 198.814,83.600 198.969 C 83.600 199.124,83.088 200.364,82.461 201.725 C 81.835 203.086,80.905 205.190,80.394 206.400 C 79.884 207.610,79.046 209.534,78.533 210.675 C 78.020 211.817,77.600 212.899,77.600 213.081 C 77.600 213.263,77.266 214.039,76.859 214.806 C 76.451 215.573,75.888 216.920,75.608 217.800 C 75.328 218.680,74.868 219.670,74.587 220.000 C 74.305 220.330,73.873 221.357,73.626 222.283 C 73.380 223.209,73.017 224.066,72.820 224.188 C 72.623 224.310,72.150 225.352,71.769 226.505 C 71.389 227.657,70.854 228.960,70.580 229.400 C 70.307 229.840,69.957 230.650,69.803 231.200 C 69.488 232.327,67.566 236.640,66.382 238.879 C 65.952 239.693,65.600 240.595,65.600 240.885 C 65.600 241.175,65.265 242.039,64.855 242.806 C 64.446 243.573,63.813 245.190,63.449 246.400 C 62.406 249.870,61.044 251.153,57.879 251.645 C 55.145 252.071,47.851 251.985,47.388 251.521 C 47.128 251.261,48.848 246.382,49.616 245.200 C 49.830 244.870,50.208 244.150,50.456 243.600 C 51.092 242.186,53.121 237.731,54.099 235.600 C 54.554 234.610,55.078 233.530,55.265 233.200 C 55.452 232.870,55.891 231.970,56.241 231.200 C 56.591 230.430,57.237 229.105,57.677 228.255 C 58.787 226.108,58.696 223.375,57.423 220.685 C 56.860 219.496,56.400 218.298,56.400 218.023 C 56.400 217.748,56.068 217.046,55.661 216.462 C 55.255 215.878,54.727 214.860,54.488 214.200 C 53.424 211.266,52.068 208.338,51.461 207.667 C 51.097 207.265,50.800 206.594,50.800 206.174 C 50.800 205.755,50.360 204.509,49.823 203.406 C 49.285 202.303,48.278 200.050,47.583 198.400 C 46.220 195.160,44.876 192.166,43.359 188.994 C 42.832 187.891,42.400 186.742,42.400 186.441 C 42.400 186.141,42.061 185.333,41.646 184.647 C 41.231 183.961,40.763 182.950,40.605 182.400 C 40.448 181.850,39.528 179.753,38.560 177.739 C 37.592 175.726,36.800 173.959,36.800 173.814 C 36.800 173.513,34.721 168.908,33.634 166.800 C 32.804 165.191,31.801 161.266,32.135 160.932 C 32.916 160.151,42.252 159.919,45.700 160.595 M354.395 165.693 C 356.158 167.504,357.600 169.189,357.600 169.439 C 357.600 169.688,357.924 170.321,358.320 170.846 C 361.434 174.975,361.748 178.146,361.644 204.400 C 361.548 228.600,361.579 228.099,360.150 228.750 C 356.266 230.520,351.882 228.795,350.113 224.800 C 349.675 223.810,348.899 222.640,348.390 222.200 L 347.464 221.400 348.362 222.639 C 348.856 223.320,349.360 224.625,349.483 225.540 C 349.653 226.809,350.072 227.533,351.254 228.601 L 352.802 230.000 356.925 230.000 C 363.143 230.000,362.478 233.044,362.478 204.577 C 362.478 190.087,362.314 179.221,362.075 177.787 C 361.329 173.312,356.411 165.075,353.353 163.175 C 350.908 161.656,351.235 162.447,354.395 165.693 M332.200 190.287 C 329.701 190.634,324.523 192.075,322.600 192.957 C 321.500 193.462,319.340 194.284,317.800 194.784 C 312.429 196.528,307.313 200.721,305.396 204.951 C 303.980 208.075,303.868 217.049,305.211 219.824 C 305.645 220.720,306.000 221.677,306.000 221.950 C 306.000 222.862,310.146 226.847,312.590 228.285 C 320.425 232.895,336.117 231.138,342.738 224.909 C 344.419 223.328,343.851 223.083,342.000 224.592 C 341.468 225.026,339.162 226.254,334.800 228.429 C 330.651 230.497,318.878 230.260,314.438 228.019 C 304.914 223.211,301.448 209.669,307.963 202.721 C 310.420 200.101,311.845 198.800,312.259 198.800 C 312.523 198.800,313.273 198.350,313.927 197.800 C 314.581 197.250,315.289 196.800,315.502 196.800 C 315.714 196.800,316.540 196.358,317.336 195.818 C 318.132 195.277,319.552 194.629,320.492 194.378 C 321.431 194.126,322.650 193.679,323.200 193.385 C 323.750 193.090,325.585 192.660,327.278 192.430 C 328.970 192.200,331.130 191.742,332.078 191.412 C 333.025 191.082,335.330 190.785,337.200 190.752 C 340.370 190.697,340.465 190.672,338.600 190.382 C 336.467 190.049,334.153 190.015,332.200 190.287 M334.800 199.746 C 333.370 200.005,331.961 200.367,331.669 200.551 C 331.377 200.735,330.027 201.143,328.669 201.459 C 323.498 202.659,320.443 205.219,319.547 209.103 C 318.918 211.825,319.389 215.299,320.517 216.259 C 321.290 216.918,321.325 216.921,320.836 216.290 C 320.458 215.803,320.272 214.295,320.243 211.488 L 320.200 207.395 321.800 205.909 C 322.680 205.091,323.530 204.417,323.688 204.411 C 323.847 204.405,324.969 203.946,326.181 203.391 C 327.394 202.837,328.975 202.270,329.693 202.133 C 330.412 201.996,331.809 201.460,332.797 200.942 C 334.192 200.211,335.265 199.992,337.597 199.965 C 339.249 199.946,341.500 199.790,342.600 199.618 C 344.374 199.342,344.194 199.305,341.000 199.292 C 339.020 199.283,336.230 199.488,334.800 199.746 M345.776 199.833 C 346.590 200.647,346.295 210.269,345.404 211.992 C 343.243 216.171,335.292 219.457,328.200 219.101 L 324.200 218.900 325.800 219.659 C 327.835 220.624,333.828 220.546,336.000 219.526 C 336.770 219.165,338.061 218.664,338.868 218.414 C 339.675 218.164,340.552 217.698,340.817 217.380 C 341.082 217.061,341.501 216.796,341.749 216.790 C 341.997 216.785,343.258 215.834,344.551 214.677 L 346.903 212.573 347.107 206.901 C 347.314 201.147,346.923 199.200,345.562 199.200 C 345.332 199.200,345.428 199.485,345.776 199.833 " stroke="none" fill="#84cc84" fill-rule="evenodd"></path></g></svg>